# xmcd CD database file generated by Grip 2.94
# 
# Track frame offsets:
#       187
#       13529
#       26989
#       37742
#       48519
#       64904
#       81719
#       94092
#       108864
# 
# Disc length: 1688 seconds
# 
# Revision: 3
# Processed by: cddbd v1.4b41PL2 Copyright (c) Steve Scherf et al.
# Submitted via: Grip 2.94
# 
DISCID=70069609
DTITLE=Ronnie Milsap - Greatest Hits
DYEAR=1900
DGENRE=
TTITLE0=(I'd Be) A Legend In My Time
TTITLE1=(I'm A) Stand By My Woman Man
TTITLE2=Pure Love
TTITLE3=Daydreams About Night Things
TTITLE4=It Was Almost Like A Song
TTITLE5=Smoky Mountain Rain
TTITLE6=Please Don't Tell Me How The Story Ends
TTITLE7=Back On My Mind Again
TTITLE8=What A Difference You've Made In My Life
EXTD=
EXTT0=
EXTT1=
EXTT2=
EXTT3=
EXTT4=
EXTT5=
EXTT6=
EXTT7=
EXTT8=
PLAYORDER=
